# xmcd
# 
# Track frame offsets:
#     150
#     15800
#     34575
#     63325
#     82242
#     98295
#     120195
#     133092
#     154702
#     173872
# 
# Disc length: 2590
# 
# Revision: 34
# Processed by: cddbd v1.5.2PL0 Copyright (c) Steve Scherf et al.
# Submitted via: fre:ac v1.0.17
# 
DISCID=690a1c0a
DTITLE=The Eagles - Their Greatest Hits 1971-1975
DYEAR=1976
DGENRE=Classic Rock
TTITLE0=Take It Easy
TTITLE1=Witchy Woman
TTITLE2=Lyin' Eyes
TTITLE3=Already Gone
TTITLE4=Desperado
TTITLE5=One Of These Nights
TTITLE6=Tequila Sunrise
TTITLE7=Take It To The Limit
TTITLE8=Peaceful Easy Feeling
TTITLE9=Best Of My Love
EXTD=YEAR: 1982
EXTT0=
EXTT1=
EXTT2=
EXTT3=
EXTT4=
EXTT5=
EXTT6=
EXTT7=
EXTT8=
EXTT9=
PLAYORDER=
